<svg width="319" height="58" viewBox="0 0 319 58" fill="none" xmlns="http://www.w3.org/2000/svg">
  <path d="M27.9102 29.9785L24.3945 33.1953L23.041 41H18.6992L23.1465 15.4062H27.4883L25.4316 27.166L28.1211 24.3711L36.9453 15.4062H42.5L31.1094 26.9551L38.2988 41H33.4473L27.9102 29.9785ZM44.9082 41H40.7422L44.0469 21.9805H48.2129L44.9082 41ZM44.6445 17.1113C44.6445 16.4668 44.8555 15.916 45.2773 15.459C45.6992 15.002 46.2676 14.7617 46.9824 14.7383C47.6621 14.7148 48.2246 14.9258 48.6699 15.3711C49.127 15.8047 49.3555 16.3379 49.3555 16.9707C49.3555 17.6387 49.1328 18.1895 48.6875 18.623C48.2539 19.0566 47.6973 19.2852 47.0176 19.3086C46.3496 19.332 45.7871 19.1328 45.3301 18.7109C44.873 18.2773 44.6445 17.7441 44.6445 17.1113ZM67.4258 31.5781C67.1914 33.5117 66.6699 35.2637 65.8613 36.834C65.0645 38.3926 64.0684 39.5469 62.873 40.2969C61.6895 41.0469 60.3535 41.4043 58.8652 41.3691C56.7441 41.3223 55.1445 40.5078 54.0664 38.9258L53.3984 41H49.584L54.2598 14H58.4434L56.5449 23.8262C57.9629 22.3145 59.6445 21.582 61.5898 21.6289C63.4297 21.6758 64.8652 22.3496 65.8965 23.6504C66.9395 24.9512 67.4902 26.7324 67.5488 28.9941C67.5605 29.6973 67.5195 30.5586 67.4258 31.5781ZM63.418 29.2227C63.418 27.9453 63.1543 26.9492 62.627 26.2344C62.0996 25.5078 61.3379 25.1328 60.3418 25.1094C58.666 25.0625 57.248 25.8711 56.0879 27.5352L54.7168 35.4102C55.2324 37.0039 56.3398 37.8301 58.0391 37.8887C59.4453 37.9238 60.5996 37.3848 61.502 36.2715C62.416 35.1582 63.002 33.5879 63.2598 31.5605C63.3535 30.5645 63.4062 29.7852 63.418 29.2227ZM73.8418 41H69.6758L74.3691 14H78.5352L73.8418 41ZM87.1309 41.3516C85.4785 41.3164 84.043 40.9004 82.8242 40.1035C81.6172 39.3066 80.7207 38.2168 80.1348 36.834C79.5605 35.4512 79.3438 33.9102 79.4844 32.2109L79.5371 31.4902C79.748 29.5566 80.3105 27.8223 81.2246 26.2871C82.1504 24.7402 83.2988 23.5684 84.6699 22.7715C86.041 21.9746 87.5293 21.5938 89.1348 21.6289C91.5137 21.6758 93.2949 22.5605 94.4785 24.2832C95.6738 26.0059 96.125 28.25 95.832 31.0156L95.5859 32.8438H83.6152C83.5098 34.3555 83.8145 35.5742 84.5293 36.5C85.2441 37.4258 86.2285 37.9004 87.4824 37.9238C89.2754 37.9824 90.9277 37.2031 92.4395 35.5859L94.5488 37.8008C93.752 38.9375 92.7031 39.8223 91.4023 40.4551C90.1016 41.0762 88.6777 41.375 87.1309 41.3516ZM88.9062 25.0391C86.7031 24.9688 85.0508 26.5273 83.9492 29.7148L91.8418 29.7324L91.9121 29.3633C91.9941 28.8242 92 28.2969 91.9297 27.7812C91.8008 26.9492 91.4727 26.293 90.9453 25.8125C90.418 25.332 89.7383 25.0742 88.9062 25.0391ZM112.725 31.4902L111.072 41H106.73L111.178 15.4062L120.037 15.4238C122.709 15.4238 124.807 16.1562 126.33 17.6211C127.854 19.0742 128.516 21.002 128.316 23.4043C128.105 25.8887 127.092 27.8633 125.275 29.3281C123.459 30.7812 121.08 31.5078 118.139 31.5078L112.725 31.4902ZM113.34 27.9219L118.314 27.957C119.885 27.957 121.168 27.5586 122.164 26.7617C123.172 25.9648 123.775 24.8516 123.975 23.4219C124.139 22.1211 123.893 21.0781 123.236 20.293C122.592 19.4961 121.613 19.0684 120.301 19.0098L114.887 18.9922L113.34 27.9219ZM139.074 41.3516C137.41 41.3164 135.945 40.918 134.68 40.1562C133.426 39.3945 132.447 38.293 131.744 36.8516C131.041 35.3984 130.643 33.752 130.549 31.9121C130.467 30.4473 130.596 28.7363 130.936 26.7793C131.287 24.8223 131.902 23.041 132.781 21.4355C133.672 19.8184 134.732 18.5 135.963 17.4805C137.99 15.8164 140.334 15.0078 142.994 15.0547C145.525 15.1016 147.541 15.9746 149.041 17.6738C150.553 19.373 151.379 21.6699 151.52 24.5645C151.59 26.0176 151.455 27.6875 151.115 29.5742C150.787 31.4492 150.213 33.1777 149.393 34.7598C148.584 36.3301 147.576 37.6426 146.369 38.6973C144.283 40.5254 141.852 41.4102 139.074 41.3516ZM147.072 27.5176L147.23 25.6543C147.301 24.377 147.189 23.1992 146.896 22.1211C146.604 21.0312 146.105 20.2051 145.402 19.6426C144.711 19.0684 143.832 18.7637 142.766 18.7285C141.289 18.6816 139.977 19.0977 138.828 19.9766C137.691 20.8555 136.766 22.1914 136.051 23.9844C135.348 25.7773 134.938 28.0273 134.82 30.7344C134.703 32.8789 135.031 34.5664 135.805 35.7969C136.578 37.0273 137.738 37.666 139.285 37.7129C141.312 37.7715 142.982 37.0098 144.295 35.4277C145.619 33.8457 146.486 31.6191 146.896 28.748L147.072 27.5176ZM167.674 34.2852C167.932 32.5977 167.012 31.3438 164.914 30.5234L163.49 29.9961C160.842 29.0703 158.961 27.9746 157.848 26.709C156.734 25.4434 156.23 23.9727 156.336 22.2969C156.43 20.8438 156.922 19.5664 157.812 18.4648C158.715 17.3516 159.898 16.4961 161.363 15.8984C162.828 15.3008 164.387 15.0195 166.039 15.0547C167.633 15.0898 169.051 15.4414 170.293 16.1094C171.535 16.7656 172.484 17.6855 173.141 18.8691C173.797 20.041 174.102 21.3828 174.055 22.8945L169.73 22.877C169.812 21.541 169.514 20.5039 168.834 19.7656C168.166 19.0273 167.152 18.6406 165.793 18.6055C164.422 18.582 163.262 18.9043 162.312 19.5723C161.375 20.2402 160.824 21.1426 160.66 22.2793C160.426 23.7676 161.422 24.9395 163.648 25.7949L164.967 26.2695C167.65 27.2305 169.525 28.3613 170.592 29.6621C171.658 30.9512 172.127 32.4805 171.998 34.25C171.881 35.6914 171.406 36.9512 170.574 38.0293C169.742 39.0957 168.588 39.9219 167.111 40.5078C165.646 41.0938 164.029 41.375 162.26 41.3516C160.584 41.3398 159.061 40.9883 157.689 40.2969C156.33 39.6055 155.287 38.6504 154.561 37.4316C153.834 36.2012 153.5 34.8066 153.559 33.248L157.9 33.2656C157.807 34.7188 158.164 35.8379 158.973 36.623C159.781 37.4082 160.941 37.8125 162.453 37.8359C163.859 37.8594 165.031 37.5605 165.969 36.9395C166.918 36.3184 167.486 35.4336 167.674 34.2852ZM197.838 34.2852C198.096 32.5977 197.176 31.3438 195.078 30.5234L193.654 29.9961C191.006 29.0703 189.125 27.9746 188.012 26.709C186.898 25.4434 186.395 23.9727 186.5 22.2969C186.594 20.8438 187.086 19.5664 187.977 18.4648C188.879 17.3516 190.062 16.4961 191.527 15.8984C192.992 15.3008 194.551 15.0195 196.203 15.0547C197.797 15.0898 199.215 15.4414 200.457 16.1094C201.699 16.7656 202.648 17.6855 203.305 18.8691C203.961 20.041 204.266 21.3828 204.219 22.8945L199.895 22.877C199.977 21.541 199.678 20.5039 198.998 19.7656C198.33 19.0273 197.316 18.6406 195.957 18.6055C194.586 18.582 193.426 18.9043 192.477 19.5723C191.539 20.2402 190.988 21.1426 190.824 22.2793C190.59 23.7676 191.586 24.9395 193.812 25.7949L195.131 26.2695C197.814 27.2305 199.689 28.3613 200.756 29.6621C201.822 30.9512 202.291 32.4805 202.162 34.25C202.045 35.6914 201.57 36.9512 200.738 38.0293C199.906 39.0957 198.752 39.9219 197.275 40.5078C195.811 41.0938 194.193 41.375 192.424 41.3516C190.748 41.3398 189.225 40.9883 187.854 40.2969C186.494 39.6055 185.451 38.6504 184.725 37.4316C183.998 36.2012 183.664 34.8066 183.723 33.248L188.064 33.2656C187.971 34.7188 188.328 35.8379 189.137 36.623C189.945 37.4082 191.105 37.8125 192.617 37.8359C194.023 37.8594 195.195 37.5605 196.133 36.9395C197.082 36.3184 197.65 35.4336 197.838 34.2852ZM212.006 34.8477L217.982 21.9805H222.588L211.32 44.2871C209.75 47.2871 207.682 48.7695 205.115 48.7344C204.482 48.7109 203.762 48.5938 202.953 48.3828L203.305 45.0781L204.061 45.1484C205.068 45.1836 205.9 44.9902 206.557 44.5684C207.213 44.1582 207.764 43.5137 208.209 42.6348L209.211 40.666L206.029 21.9805H210.354L212.006 34.8477ZM233.117 35.7266C233.316 34.5664 232.561 33.7637 230.85 33.3184C229.15 32.8613 227.99 32.498 227.369 32.2285C224.955 31.1973 223.789 29.627 223.871 27.5176C223.93 25.8066 224.703 24.3945 226.191 23.2812C227.691 22.1562 229.484 21.6055 231.57 21.6289C233.586 21.6523 235.227 22.2207 236.492 23.334C237.77 24.4473 238.396 25.9062 238.373 27.7109L234.242 27.6934C234.266 26.8145 234.025 26.1289 233.521 25.6367C233.018 25.1328 232.326 24.8691 231.447 24.8457C230.521 24.8457 229.725 25.0742 229.057 25.5312C228.4 25.9883 228.02 26.5859 227.914 27.3242C227.75 28.3906 228.5 29.1348 230.164 29.5566C231.828 29.9668 233.059 30.3477 233.855 30.6992C236.176 31.7188 237.295 33.3125 237.213 35.4805C237.154 36.6875 236.756 37.7422 236.018 38.6445C235.291 39.5352 234.312 40.2207 233.082 40.7012C231.852 41.1699 230.545 41.3867 229.162 41.3516C227.088 41.3281 225.365 40.7246 223.994 39.541C222.635 38.3574 221.967 36.8398 221.99 34.9883L226.016 35.0059C226.039 36.0254 226.344 36.7988 226.93 37.3262C227.516 37.8535 228.318 38.123 229.338 38.1348C230.369 38.1348 231.225 37.9238 231.904 37.502C232.596 37.0684 233 36.4766 233.117 35.7266ZM249.289 17.3574L248.48 21.9805H251.732L251.188 25.1445H247.918L246.125 35.7969C246.09 36.0898 246.084 36.3535 246.107 36.5879C246.178 37.3496 246.646 37.748 247.514 37.7832C247.947 37.7832 248.439 37.7305 248.99 37.625L248.709 40.9648C247.842 41.2109 246.969 41.334 246.09 41.334C244.637 41.3105 243.547 40.8184 242.82 39.8574C242.105 38.8848 241.824 37.6016 241.977 36.0078L243.752 25.1445H240.711L241.273 21.9805H244.297L245.105 17.3574H249.289ZM260.381 41.3516C258.729 41.3164 257.293 40.9004 256.074 40.1035C254.867 39.3066 253.971 38.2168 253.385 36.834C252.811 35.4512 252.594 33.9102 252.734 32.2109L252.787 31.4902C252.998 29.5566 253.561 27.8223 254.475 26.2871C255.4 24.7402 256.549 23.5684 257.92 22.7715C259.291 21.9746 260.779 21.5938 262.385 21.6289C264.764 21.6758 266.545 22.5605 267.729 24.2832C268.924 26.0059 269.375 28.25 269.082 31.0156L268.836 32.8438H256.865C256.76 34.3555 257.064 35.5742 257.779 36.5C258.494 37.4258 259.479 37.9004 260.732 37.9238C262.525 37.9824 264.178 37.2031 265.689 35.5859L267.799 37.8008C267.002 38.9375 265.953 39.8223 264.652 40.4551C263.352 41.0762 261.928 41.375 260.381 41.3516ZM262.156 25.0391C259.953 24.9688 258.301 26.5273 257.199 29.7148L265.092 29.7324L265.162 29.3633C265.244 28.8242 265.25 28.2969 265.18 27.7812C265.051 26.9492 264.723 26.293 264.195 25.8125C263.668 25.332 262.988 25.0742 262.156 25.0391ZM277.871 21.9629L277.502 23.9844C279.072 22.3672 280.947 21.582 283.127 21.6289C284.322 21.6523 285.312 21.9277 286.098 22.4551C286.895 22.9824 287.434 23.6797 287.715 24.5469C289.473 22.5547 291.488 21.582 293.762 21.6289C295.613 21.6758 296.984 22.3145 297.875 23.5449C298.777 24.7637 299.117 26.4746 298.895 28.6777L296.838 41H292.672L294.746 28.6426C294.805 28.127 294.811 27.6523 294.764 27.2188C294.576 25.8477 293.709 25.1445 292.162 25.1094C290.439 25.0625 289.08 26.0059 288.084 27.9395L288.031 28.3262L285.852 41H281.668L283.742 28.6953C283.801 28.1914 283.807 27.7227 283.76 27.2891C283.572 25.8711 282.705 25.1445 281.158 25.1094C279.6 25.0859 278.299 25.7832 277.256 27.2012L274.848 41H270.682L273.969 21.9805L277.871 21.9629Z" fill="url(#paint0_linear_3_44)" />
  <defs>
    <linearGradient id="paint0_linear_3_44" x1="159.5" y1="0" x2="159.5" y2="58" gradientUnits="userSpaceOnUse">
      <stop stop-color="#00D1FF" />
      <stop offset="1" stop-color="#0066FF" />
    </linearGradient>
  </defs>
</svg>